<svg width="16" height="16" viewBox="0 0 16 16" fill="none" xmlns="http://www.w3.org/2000/svg">
<path d="M9.56016 1.33301H6.42016C5.72682 1.33301 5.16016 1.89301 5.16016 2.58634V3.21301C5.16016 3.90634 5.72016 4.46634 6.41349 4.46634H9.55349C10.2468 4.46634 10.8068 3.90634 10.8068 3.21301V2.58634C10.8135 1.89301 10.2468 1.33301 9.55349 1.33301H9.56016Z" fill="#ffffff80"/>
<path d="M11.4864 3.20631C11.4864 4.26631 10.6197 5.13298 9.55969 5.13298H6.41969C5.35969 5.13298 4.49302 4.26631 4.49302 3.20631C4.49302 2.83298 4.09302 2.59965 3.75969 2.77298C2.81969 3.27298 2.17969 4.26631 2.17969 5.40631V11.6796C2.17969 13.3196 3.51969 14.6596 5.15969 14.6596H10.813C12.453 14.6596 13.793 13.3196 13.793 11.6796V5.39965C13.793 4.25965 13.153 3.26631 12.213 2.76631C11.8797 2.59298 11.4797 2.82631 11.4797 3.19965L11.4864 3.20631ZM8.24635 11.293H5.31969C5.04635 11.293 4.81969 11.0663 4.81969 10.793C4.81969 10.5196 5.04635 10.293 5.31969 10.293H8.23969C8.51302 10.293 8.73969 10.5196 8.73969 10.793C8.73969 11.0663 8.51302 11.293 8.23969 11.293H8.24635ZM9.99302 8.62631H5.31969C5.04635 8.62631 4.81969 8.39965 4.81969 8.12631C4.81969 7.85298 5.04635 7.62631 5.31969 7.62631H9.98635C10.2597 7.62631 10.4864 7.85298 10.4864 8.12631C10.4864 8.39965 10.2597 8.62631 9.98635 8.62631H9.99302Z" fill="#ffffff80"/>
</svg>
