<svg width="14" height="14" viewBox="0 0 14 14" fill="none" xmlns="http://www.w3.org/2000/svg">
<g clip-path="url(#clip0_2263_9458)">
<path d="M6.4763 13.2707H4.0263C1.74547 13.2707 0.730469 12.2557 0.730469 9.97484V7.52484C0.730469 5.244 1.74547 4.229 4.0263 4.229H6.4763C8.75714 4.229 9.77214 5.244 9.77214 7.52484V9.97484C9.77214 12.2557 8.75714 13.2707 6.4763 13.2707ZM4.0263 5.104C2.21797 5.104 1.60547 5.7165 1.60547 7.52484V9.97484C1.60547 11.7832 2.21797 12.3957 4.0263 12.3957H6.4763C8.28464 12.3957 8.89714 11.7832 8.89714 9.97484V7.52484C8.89714 5.7165 8.28464 5.104 6.4763 5.104H4.0263Z" fill="#292D32"/>
<path d="M9.9763 9.77067H9.33464C9.09547 9.77067 8.89714 9.57234 8.89714 9.33317V7.52484C8.89714 5.7165 8.28464 5.104 6.4763 5.104H4.66797C4.4288 5.104 4.23047 4.90567 4.23047 4.6665V4.02484C4.23047 1.744 5.24547 0.729004 7.5263 0.729004H9.9763C12.2571 0.729004 13.2721 1.744 13.2721 4.02484V6.47484C13.2721 8.75567 12.2571 9.77067 9.9763 9.77067ZM9.77214 8.89567H9.9763C11.7846 8.89567 12.3971 8.28317 12.3971 6.47484V4.02484C12.3971 2.2165 11.7846 1.604 9.9763 1.604H7.5263C5.71797 1.604 5.10547 2.2165 5.10547 4.02484V4.229H6.4763C8.75714 4.229 9.77214 5.244 9.77214 7.52484V8.89567Z" fill="#292D32"/>
</g>
<defs>
<clipPath id="clip0_2263_9458">
<rect width="14" height="14" fill="white"/>
</clipPath>
</defs>
</svg>
