<svg width="20" height="20" viewBox="0 0 20 20" fill="none" xmlns="http://www.w3.org/2000/svg">
<g clip-path="url(#clip0_2205_9412)">
<path fill-rule="evenodd" clip-rule="evenodd" d="M5.95944 1.07709C6.11572 0.920805 6.32768 0.833008 6.5487 0.833008H13.4487C13.6697 0.833008 13.8817 0.920805 14.038 1.07709L18.9213 5.96042C19.0776 6.1167 19.1654 6.32866 19.1654 6.54967V13.4497C19.1654 13.6707 19.0776 13.8826 18.9213 14.0389L14.038 18.9223C13.8817 19.0785 13.6697 19.1663 13.4487 19.1663H6.5487C6.32768 19.1663 6.11572 19.0785 5.95944 18.9223L1.07611 14.0389C0.919829 13.8826 0.832031 13.6707 0.832031 13.4497V6.54967C0.832031 6.32866 0.919829 6.1167 1.07611 5.96042L5.95944 1.07709ZM6.89388 2.49967L2.4987 6.89485V13.1045L6.89388 17.4997H13.1035L17.4987 13.1045V6.89485L13.1035 2.49967H6.89388Z" fill="#2F2F2F"/>
<path fill-rule="evenodd" clip-rule="evenodd" d="M13.0906 6.91107C13.416 7.23651 13.416 7.76414 13.0906 8.08958L8.09056 13.0896C7.76512 13.415 7.23748 13.415 6.91205 13.0896C6.58661 12.7641 6.58661 12.2365 6.91205 11.9111L11.912 6.91107C12.2375 6.58563 12.7651 6.58563 13.0906 6.91107Z" fill="#2F2F2F"/>
<path fill-rule="evenodd" clip-rule="evenodd" d="M6.91205 6.91107C7.23748 6.58563 7.76512 6.58563 8.09056 6.91107L13.0906 11.9111C13.416 12.2365 13.416 12.7641 13.0906 13.0896C12.7651 13.415 12.2375 13.415 11.912 13.0896L6.91205 8.08958C6.58661 7.76414 6.58661 7.23651 6.91205 6.91107Z" fill="#2F2F2F"/>
</g>
<defs>
<clipPath id="clip0_2205_9412">
<rect width="20" height="20" fill="white"/>
</clipPath>
</defs>
</svg>
