<svg width="12" height="14" viewBox="0 0 12 14" fill="none" xmlns="http://www.w3.org/2000/svg">
<path d="M11.2423 3.91992C11.2306 3.91992 11.2131 3.91992 11.1956 3.91992C8.1098 3.61075 5.0298 3.49409 1.97313 3.80325L0.783129 3.91992C0.538129 3.94325 0.322295 3.76825 0.298962 3.52325C0.275629 3.27825 0.450629 3.06825 0.689795 3.04492L1.8798 2.92825C4.98313 2.61325 8.1273 2.73575 11.2773 3.04492C11.5165 3.06825 11.6915 3.28409 11.6681 3.52325C11.6506 3.75075 11.4581 3.91992 11.2365 3.91992H11.2423Z" fill="#ffffff"/>
<path d="M3.94965 3.3365C3.92632 3.3365 3.90298 3.3365 3.87382 3.33067C3.64048 3.28984 3.47715 3.06234 3.51799 2.829L3.64632 2.06484C3.73965 1.50484 3.86799 0.729004 5.22715 0.729004H6.75549C8.12048 0.729004 8.24882 1.534 8.33632 2.07067L8.46465 2.829C8.50548 3.06817 8.34215 3.29567 8.10882 3.33067C7.86965 3.3715 7.64215 3.20817 7.60715 2.97484L7.47882 2.2165C7.39715 1.709 7.37965 1.60984 6.76132 1.60984H5.23298C4.60882 1.60984 4.59715 1.6915 4.50965 2.21067L4.37549 2.969C4.34049 3.18484 4.15382 3.3365 3.94382 3.3365H3.94965Z" fill="#ffffff"/>
<path d="M7.8714 13.2707H4.12056C2.08473 13.2707 2.00306 12.1449 1.9389 11.2349L1.55973 5.35487C1.54223 5.1157 1.7289 4.9057 1.96806 4.8882C2.21306 4.87654 2.41723 5.05737 2.43473 5.29654L2.8139 11.1707C2.87806 12.0574 2.9014 12.3899 4.12056 12.3899H7.86556C9.09056 12.3899 9.1139 12.0574 9.17223 11.1707L9.5514 5.2907C9.5689 5.05154 9.7789 4.8707 10.0181 4.88237C10.2572 4.89987 10.4439 5.0982 10.4264 5.3432L10.0472 11.2174C9.98306 12.1274 9.9014 13.2532 7.86556 13.2532L7.8714 13.2707Z" fill="#ffffff"/>
<path d="M6.96786 10.0625H5.02536C4.78036 10.0625 4.58203 9.86417 4.58203 9.625C4.58203 9.38583 4.78036 9.1875 5.01953 9.1875H6.96203C7.2012 9.1875 7.39953 9.38583 7.39953 9.625C7.39953 9.86417 7.2012 10.0625 6.96203 10.0625H6.96786Z" fill="#ffffff"/>
<path d="M7.45573 7.729H4.53906C4.2999 7.729 4.10156 7.53067 4.10156 7.2915C4.10156 7.05234 4.2999 6.854 4.53906 6.854H7.45573C7.6949 6.854 7.89323 7.05234 7.89323 7.2915C7.89323 7.53067 7.6949 7.729 7.45573 7.729Z" fill="#ffffff"/>
</svg>
