<svg width="14" height="14" viewBox="0 0 14 14" fill="none" xmlns="http://www.w3.org/2000/svg">
<g clip-path="url(#clip0_1884_8752)">
<path d="M5.25 10.354C5.19167 10.354 5.13917 10.3423 5.08083 10.319C4.9175 10.2548 4.8125 10.0915 4.8125 9.9165V6.4165C4.8125 6.17734 5.01083 5.979 5.25 5.979C5.48917 5.979 5.6875 6.17734 5.6875 6.4165V8.86067L6.1075 8.44067C6.27667 8.2715 6.55667 8.2715 6.72583 8.44067C6.895 8.60984 6.895 8.88984 6.72583 9.059L5.55917 10.2257C5.4775 10.3073 5.36083 10.354 5.25 10.354Z" fill="#292D32"/>
<path d="M5.24724 10.3542C5.13641 10.3542 5.02557 10.3133 4.93807 10.2258L3.77141 9.05917C3.60224 8.89001 3.60224 8.61001 3.77141 8.44084C3.94057 8.27167 4.22057 8.27167 4.38974 8.44084L5.55641 9.60751C5.72557 9.77667 5.72557 10.0567 5.55641 10.2258C5.46891 10.3133 5.35807 10.3542 5.24724 10.3542Z" fill="#292D32"/>
<path d="M8.7513 13.2707H5.2513C2.0838 13.2707 0.730469 11.9173 0.730469 8.74984V5.24984C0.730469 2.08234 2.0838 0.729004 5.2513 0.729004H8.16797C8.40714 0.729004 8.60547 0.927337 8.60547 1.1665C8.60547 1.40567 8.40714 1.604 8.16797 1.604H5.2513C2.56214 1.604 1.60547 2.56067 1.60547 5.24984V8.74984C1.60547 11.439 2.56214 12.3957 5.2513 12.3957H8.7513C11.4405 12.3957 12.3971 11.439 12.3971 8.74984V5.83317C12.3971 5.594 12.5955 5.39567 12.8346 5.39567C13.0738 5.39567 13.2721 5.594 13.2721 5.83317V8.74984C13.2721 11.9173 11.9188 13.2707 8.7513 13.2707Z" fill="#292D32"/>
<path d="M12.8346 6.27076H10.5013C8.5063 6.27076 7.73047 5.48909 7.73047 3.49409V1.16076C7.73047 0.98576 7.83547 0.822427 7.9988 0.75826C8.16214 0.68826 8.3488 0.729093 8.47714 0.851593L13.1438 5.51826C13.2663 5.64076 13.3071 5.83326 13.2371 5.99659C13.1671 6.15993 13.0096 6.26493 12.8346 6.26493V6.27076ZM8.60547 2.21659V3.49409C8.60547 4.99909 8.9963 5.38993 10.5013 5.38993H11.7788L8.60547 2.21659Z" fill="#292D32"/>
</g>
<defs>
<clipPath id="clip0_1884_8752">
<rect width="14" height="14" fill="white"/>
</clipPath>
</defs>
</svg>
