<svg width="33" height="33" viewBox="0 0 33 33" fill="none" xmlns="http://www.w3.org/2000/svg">
<rect width="33" height="33" rx="16.5" fill="#D9D9D9"/>
<path d="M13.1816 16.4998V12.0998C13.1816 11.2246 13.5312 10.3852 14.1535 9.76635C14.7758 9.14748 15.6199 8.7998 16.5 8.7998C17.3801 8.7998 18.2242 9.14748 18.8465 9.76635C19.4688 10.3852 19.8184 11.2246 19.8184 12.0998V16.4998C19.8184 17.375 19.4688 18.2144 18.8465 18.8333C18.2242 19.4521 17.3801 19.7998 16.5 19.7998C15.6199 19.7998 14.7758 19.4521 14.1535 18.8333C13.5312 18.2144 13.1816 17.375 13.1816 16.4998ZM21.5053 16.5067C21.3606 16.4912 21.2156 16.533 21.1018 16.6231C20.9879 16.7132 20.9143 16.8443 20.8969 16.9879C20.7755 18.0631 20.26 19.056 19.4489 19.7771C18.6378 20.4982 17.5879 20.8968 16.5 20.8968C15.412 20.8968 14.3622 20.4982 13.5511 19.7771C12.74 19.056 12.2245 18.0631 12.1031 16.9879C12.0857 16.8443 12.0121 16.7132 11.8982 16.6231C11.7844 16.533 11.6394 16.4912 11.4947 16.5067C11.4222 16.5135 11.3518 16.5347 11.2876 16.569C11.2234 16.6033 11.1668 16.65 11.1211 16.7063C11.0754 16.7627 11.0414 16.8276 11.0213 16.8972C11.0012 16.9668 10.9952 17.0398 11.0038 17.1117C11.1453 18.3596 11.7135 19.5213 12.6133 20.4023C13.5132 21.2834 14.69 21.8304 15.9469 21.9517V23.6498C15.9469 23.7957 16.0052 23.9356 16.1089 24.0387C16.2126 24.1419 16.3533 24.1998 16.5 24.1998C16.6467 24.1998 16.7874 24.1419 16.8911 24.0387C16.9948 23.9356 17.0531 23.7957 17.0531 23.6498V21.9517C18.31 21.8304 19.4868 21.2834 20.3867 20.4023C21.2865 19.5213 21.8547 18.3596 21.9962 17.1117C22.0048 17.0398 21.9988 16.9668 21.9787 16.8972C21.9586 16.8276 21.9246 16.7627 21.8789 16.7063C21.8332 16.65 21.7766 16.6033 21.7124 16.569C21.6482 16.5347 21.5778 16.5135 21.5053 16.5067Z" fill="#606060"/>
</svg>
