<svg width="20" height="21" viewBox="0 0 20 21" fill="none" xmlns="http://www.w3.org/2000/svg">
<path d="M19.5231 14.9199C19.3631 14.6499 18.9131 14.2299 17.7931 14.4299C17.1731 14.5399 16.5431 14.5899 15.9131 14.5599C13.5831 14.4599 11.4731 13.3899 10.0031 11.7399C8.70311 10.2899 7.90311 8.38985 7.89311 6.34985C7.89311 5.20985 8.10311 4.10985 8.55311 3.06985C8.99311 2.05985 8.68311 1.52985 8.46311 1.30985C8.23311 1.07985 7.69311 0.759853 6.63311 1.19985C2.54311 2.91985 0.0131066 7.01985 0.313107 11.4099C0.613107 15.5399 3.51311 19.0699 7.35311 20.3999C8.26311 20.7199 9.23311 20.9099 10.2331 20.9499C10.3931 20.9599 10.5531 20.9699 10.7131 20.9699C14.0631 20.9699 17.2031 19.3899 19.1831 16.6999C19.8531 15.7699 19.6731 15.1799 19.5031 14.9099L19.5231 14.9199Z" fill="#ffffff80"/>
</svg>
