<svg width="32" height="32" viewBox="0 0 32 32" fill="none" xmlns="http://www.w3.org/2000/svg">
<g opacity="0.5">
<path d="M16.0013 2.66699C8.6413 2.66699 2.66797 8.64033 2.66797 16.0003C2.66797 23.3603 8.6413 29.3337 16.0013 29.3337C23.3613 29.3337 29.3346 23.3603 29.3346 16.0003C29.3346 8.64033 23.3613 2.66699 16.0013 2.66699ZM16.0013 6.66699C18.2146 6.66699 20.0013 8.45366 20.0013 10.667C20.0013 12.8803 18.2146 14.667 16.0013 14.667C13.788 14.667 12.0013 12.8803 12.0013 10.667C12.0013 8.45366 13.788 6.66699 16.0013 6.66699ZM16.0013 25.6003C12.668 25.6003 9.7213 23.8937 8.0013 21.307C8.0413 18.6537 13.3346 17.2003 16.0013 17.2003C18.6546 17.2003 23.9613 18.6537 24.0013 21.307C22.2813 23.8937 19.3346 25.6003 16.0013 25.6003Z" fill="white"/>
</g>
</svg>
