<svg width="36" height="36" viewBox="0 0 36 36" fill="none" xmlns="http://www.w3.org/2000/svg">
<rect width="36" height="36" rx="18" fill="#FF41C1" fill-opacity="0.2"/>
<path d="M18.0026 11.333C16.2559 11.333 14.8359 12.753 14.8359 14.4997C14.8359 16.213 16.1759 17.5997 17.9226 17.6597C17.9759 17.653 18.0293 17.653 18.0693 17.6597C18.0826 17.6597 18.0893 17.6597 18.1026 17.6597C18.1093 17.6597 18.1093 17.6597 18.1159 17.6597C19.8226 17.5997 21.1626 16.213 21.1693 14.4997C21.1693 12.753 19.7493 11.333 18.0026 11.333Z" fill="#FF8AD9"/>
<path d="M21.3886 19.4398C19.5286 18.1998 16.4953 18.1998 14.6219 19.4398C13.7753 19.9998 13.3086 20.7664 13.3086 21.5864C13.3086 22.4064 13.7753 23.1664 14.6153 23.7264C15.5486 24.3531 16.7686 24.6664 17.9953 24.6664C19.2219 24.6664 20.4486 24.3531 21.3819 23.7264C22.2219 23.1598 22.6886 22.3998 22.6886 21.5731C22.6819 20.7598 22.2219 19.9931 21.3819 19.4398H21.3886ZM19.5553 21.0398L17.8753 22.7198C17.7953 22.7998 17.6886 22.8398 17.5819 22.8398C17.4753 22.8398 17.3686 22.7931 17.2886 22.7198L16.4486 21.8798C16.2886 21.7198 16.2886 21.4531 16.4486 21.2931C16.6086 21.1331 16.8686 21.1331 17.0286 21.2931L17.5753 21.8398L18.9619 20.4531C19.1219 20.2931 19.3886 20.2931 19.5486 20.4531C19.7153 20.6131 19.7153 20.8798 19.5486 21.0398H19.5553Z" fill="#FF8AD9"/>
</svg>
