<svg width="16" height="16" viewBox="0 0 16 16" fill="none" xmlns="http://www.w3.org/2000/svg">
<g clip-path="url(#clip0_1025_7521)">
<path d="M7.9987 1.33301C4.3187 1.33301 1.33203 4.31967 1.33203 7.99967C1.33203 11.6797 4.3187 14.6663 7.9987 14.6663C11.6787 14.6663 14.6654 11.6797 14.6654 7.99967C14.6654 4.31967 11.6787 1.33301 7.9987 1.33301ZM12.972 6.07967L11.1187 6.84634C10.7787 5.93967 10.0654 5.21967 9.15203 4.88634L9.9187 3.03301C11.3187 3.56634 12.432 4.67967 12.972 6.07967ZM7.9987 9.99967C6.89203 9.99967 5.9987 9.10634 5.9987 7.99967C5.9987 6.89301 6.89203 5.99967 7.9987 5.99967C9.10536 5.99967 9.9987 6.89301 9.9987 7.99967C9.9987 9.10634 9.10536 9.99967 7.9987 9.99967ZM6.08536 3.02634L6.86536 4.87967C5.94536 5.21301 5.2187 5.93967 4.8787 6.85967L3.02536 6.08634C3.56536 4.67967 4.6787 3.56634 6.08536 3.02634ZM3.02536 9.91301L4.8787 9.14634C5.2187 10.0663 5.9387 10.7863 6.8587 11.1197L6.0787 12.973C4.6787 12.433 3.56536 11.3197 3.02536 9.91301ZM9.9187 12.973L9.15203 11.1197C10.0654 10.7797 10.7854 10.0597 11.1187 9.13967L12.972 9.91967C12.432 11.3197 11.3187 12.433 9.9187 12.973Z" fill="#FF8AD9"/>
</g>
<defs>
<clipPath id="clip0_1025_7521">
<rect width="16" height="16" fill="white"/>
</clipPath>
</defs>
</svg>
