<svg width="20" height="20" viewBox="0 0 20 20" fill="none" xmlns="http://www.w3.org/2000/svg">
<g clip-path="url(#clip0_2205_9376)">
<path fill-rule="evenodd" clip-rule="evenodd" d="M13.0512 3.14409C11.5739 2.48584 9.92339 2.32277 8.34584 2.6792C6.76829 3.03562 5.34821 3.89245 4.29741 5.12189C3.2466 6.35133 2.62137 7.88751 2.51496 9.50132C2.40854 11.1151 2.82665 12.7201 3.70692 14.0769C4.58719 15.4337 5.88246 16.4695 7.39955 17.03C8.91664 17.5905 10.5743 17.6456 12.1252 17.187C13.6762 16.7284 15.0373 15.7808 16.0057 14.4855C16.9741 13.1901 17.4978 11.6164 17.4987 9.99909V9.2329C17.4987 8.77266 17.8718 8.39956 18.332 8.39956C18.7923 8.39956 19.1654 8.77266 19.1654 9.2329V9.99956C19.1642 11.9763 18.5242 13.9002 17.3406 15.4834C16.157 17.0666 14.4934 18.2248 12.5978 18.7853C10.7022 19.3457 8.67619 19.2784 6.82196 18.5934C4.96774 17.9084 3.38463 16.6423 2.30874 14.984C1.23286 13.3257 0.72184 11.3641 0.851902 9.39166C0.981963 7.41922 1.74614 5.54167 3.03045 4.03902C4.31477 2.53637 6.05042 1.48914 7.97854 1.05351C9.90666 0.617872 11.9239 0.817181 13.7295 1.62171C14.1499 1.80902 14.3389 2.30167 14.1516 2.72206C13.9642 3.14246 13.4716 3.3314 13.0512 3.14409Z" fill="#2F2F2F"/>
<path fill-rule="evenodd" clip-rule="evenodd" d="M18.9236 2.74378C19.2492 3.06906 19.2495 3.59669 18.9242 3.92229L10.5909 12.264C10.4346 12.4204 10.2226 12.5083 10.0015 12.5083C9.78042 12.5084 9.56838 12.4206 9.41205 12.2643L6.91205 9.76426C6.58661 9.43882 6.58661 8.91118 6.91205 8.58574C7.23748 8.26031 7.76512 8.26031 8.09056 8.58574L10.001 10.4962L17.7451 2.74437C18.0704 2.41877 18.598 2.41851 18.9236 2.74378Z" fill="#2F2F2F"/>
</g>
<defs>
<clipPath id="clip0_2205_9376">
<rect width="20" height="20" fill="white"/>
</clipPath>
</defs>
</svg>
